<svg width="48" height="48" viewBox="0 0 48 48" fill="none" xmlns="http://www.w3.org/2000/svg">
<rect width="48" height="48" rx="24" fill="#F6F6F6"/>
<path d="M27.7007 28.7308V17.0984C27.7007 16.1517 26.9332 15.3842 25.9864 15.3842H14.9184C13.9716 15.3842 13.2041 16.1517 13.2041 17.0984V28.4567C13.2041 29.4035 13.9716 30.171 14.9184 30.171H16.2041M34.7959 23.4969H27.7031M32.489 29.8511H33.0799C34.0267 29.8511 34.7942 29.0836 34.7942 28.1368V22.9923L32.4072 18.1052C32.1197 17.5165 31.5219 17.1432 30.8667 17.1432H28.0099M26.7037 30.1706H21.668M16.2891 30.2226C16.2891 30.8573 16.5413 31.466 16.9901 31.9148C17.4389 32.3636 18.0476 32.6157 18.6823 32.6157C19.317 32.6157 19.9257 32.3636 20.3745 31.9148C20.8233 31.466 21.0754 30.8573 21.0754 30.2226C21.0754 29.5879 20.8233 28.9792 20.3745 28.5304C19.9257 28.0816 19.317 27.8294 18.6823 27.8294C18.0476 27.8294 17.4389 28.0816 16.9901 28.5304C16.5413 28.9792 16.2891 29.5879 16.2891 30.2226ZM27.1526 30.2226C27.1526 30.8573 27.4047 31.466 27.8535 31.9148C28.3023 32.3636 28.911 32.6157 29.5457 32.6157C30.1804 32.6157 30.7891 32.3636 31.2379 31.9148C31.6867 31.466 31.9389 30.8573 31.9389 30.2226C31.9389 29.5879 31.6867 28.9792 31.2379 28.5304C30.7891 28.0816 30.1804 27.8294 29.5457 27.8294C28.911 27.8294 28.3023 28.0816 27.8535 28.5304C27.4047 28.9792 27.1526 29.5879 27.1526 30.2226Z" stroke="#0E1422" stroke-width="1.71429" stroke-linecap="round" stroke-linejoin="round"/>
</svg>
